<?xml version="1.0" encoding="UTF-8" standalone="no"?>
<svg
   width="256"
   height="256"
   viewBox="0 0 256 256"
   fill="none"
   version="1.1"
   id="svg6"
   sodipodi:docname="endlessos.svg"
   inkscape:version="1.1 (c68e22c387, 2021-05-23)"
   xmlns:inkscape="http://www.inkscape.org/namespaces/inkscape"
   xmlns:sodipodi="http://sodipodi.sourceforge.net/DTD/sodipodi-0.dtd"
   xmlns="http://www.w3.org/2000/svg"
   xmlns:svg="http://www.w3.org/2000/svg"
   xmlns:rdf="http://www.w3.org/1999/02/22-rdf-syntax-ns#"
   xmlns:cc="http://creativecommons.org/ns#"
   xmlns:dc="http://purl.org/dc/elements/1.1/">
  <metadata
     id="metadata12">
    <rdf:RDF>
      <cc:Work
         rdf:about="">
        <dc:format>image/svg+xml</dc:format>
        <dc:type
           rdf:resource="http://purl.org/dc/dcmitype/StillImage" />
      </cc:Work>
    </rdf:RDF>
  </metadata>
  <defs
     id="defs10" />
  <sodipodi:namedview
     pagecolor="#ffffff"
     bordercolor="#666666"
     borderopacity="1"
     objecttolerance="10"
     gridtolerance="10"
     guidetolerance="10"
     inkscape:pageopacity="0"
     inkscape:pageshadow="2"
     inkscape:window-width="1366"
     inkscape:window-height="691"
     id="namedview8"
     showgrid="false"
     inkscape:zoom="1.2159235"
     inkscape:cx="115.55003"
     inkscape:cy="170.24097"
     inkscape:window-x="0"
     inkscape:window-y="0"
     inkscape:window-maximized="1"
     inkscape:current-layer="g839"
     inkscape:pagecheckerboard="0"
     height="256px" />
  <g
     id="g839"
     transform="translate(-3.5770639e-6,18.59608)">
    <path
       d="m 224.30967,135.81398 c -11.68554,0 -31.96497,-5.71226 -59.11616,-16.58683 25.1971,-12.11517 45.34478,-18.42923 59.11616,-18.42923 14.86256,0 17.77421,6.6529 17.77421,18.14222 0,14.37784 -4.65605,16.87384 -17.77421,16.87384 z M 31.822074,118.26057 c -14.875538,0 -17.787167,-6.65286 -17.787167,-18.14218 0,-14.376746 4.669003,-16.873093 17.787167,-16.873093 11.685557,0 31.964986,5.698544 59.116205,16.573113 -25.197131,12.11517 -45.357802,18.44216 -59.116205,18.44216 z M 224.30967,86.891881 c -20.77675,0 -49.35687,11.51562 -75.89384,25.134299 L 122.65457,99.007419 C 143.6429,87.349235 162.00536,75.481442 172.05228,68.737274 l 4.60408,-3.084617 c 0.93899,-0.734727 1.54768,-1.808661 1.69613,-2.988526 0.14664,-1.179846 -0.18,-2.370079 -0.90931,-3.311436 l -2.62215,-3.68585 c -1.49572,-2.117326 -4.09188,-2.888522 -5.77133,-1.712188 l -1.02435,0.666583 c -8.03902,5.463402 -27.1512,18.128509 -49.46266,30.676016 -3.85622,2.169743 -7.62893,4.239114 -11.31997,6.208316 C 72.405076,76.775356 47.011252,69.286093 31.755282,69.286093 16.972527,69.286093 3.5770639e-6,72.788998 3.5770639e-6,100.09247 c 0,14.62597 5.5096547229361,32.06085 31.7552784229361,32.06085 20.776768,0 49.345765,-11.51339 75.880848,-25.14689 l 25.72231,13.07062 c -19.87117,11.03196 -37.316913,22.21946 -47.666329,29.12045 l -5.994016,3.92175 c -1.013227,0.72212 -1.699853,1.81273 -1.911397,3.03666 -0.211547,1.2239 0.07056,2.4793 0.783117,3.49769 l 2.624,3.68658 c 0.675501,1.01654 1.729549,1.72572 2.928344,1.97014 1.200667,0.24442 2.447704,0.006 3.472075,-0.66289 l 3.724458,-2.47007 c 9.313918,-6.23441 26.483138,-17.3719 46.131628,-28.42794 3.85621,-2.17009 7.62519,-4.24023 11.30697,-6.2085 34.85249,14.72967 60.23332,22.21948 75.50043,22.21948 14.78276,0 31.74228,-3.50327 31.74228,-30.79432 0,-14.63894 -5.5078,-32.061233 -31.74228,-32.061233"
       fill="#f15a22"
       id="path2"
       style="stroke-width:1.85367" />
  </g>
</svg>
